<svg xmlns="http://www.w3.org/2000/svg" width="3000" height="2500"
  enable-background="new 0 0 3000 2500" viewBox="0 0 3000 2500" id="business-solution">
  <g>
    <rect width="3000" height="2500" fill="#FFF"></rect>
  </g>
  <g>
    <g opacity=".4">
      <ellipse cx="886.715" cy="2294.597" fill="#1E1F21" opacity=".01" rx="330.734" ry="99.545"></ellipse>
      <ellipse cx="886.715" cy="2294.597" fill="#1E1F21" opacity=".025" rx="326.814" ry="98.365"></ellipse>
      <ellipse cx="886.715" cy="2294.597" fill="#1E1F21" opacity=".04" rx="322.895" ry="97.186"></ellipse>
      <ellipse cx="886.715" cy="2294.597" fill="#1E1F21" opacity=".055" rx="318.976" ry="96.007"></ellipse>
      <path fill="#1E1F21"
        d="M1201.771,2294.597c0,52.368-141.056,94.826-315.057,94.826
			s-315.057-42.458-315.057-94.826c0-52.374,141.056-94.829,315.057-94.829S1201.771,2242.223,1201.771,2294.597z"
        opacity=".07"></path>
      <path fill="#1E1F21"
        d="M1197.853,2294.597c0,51.717-139.301,93.646-311.138,93.646
			s-311.137-41.93-311.137-93.646c0-51.723,139.301-93.649,311.137-93.649S1197.853,2242.874,1197.853,2294.597z"
        opacity=".085"></path>
      <ellipse cx="886.715" cy="2294.597" fill="#1E1F21" opacity=".1" rx="307.218" ry="92.468"></ellipse>
      <ellipse cx="886.715" cy="2294.597" fill="#1E1F21" opacity=".115" rx="303.299" ry="91.287"></ellipse>
      <ellipse cx="886.715" cy="2294.597" fill="#1E1F21" opacity=".13" rx="299.38" ry="90.107"></ellipse>
      <path fill="#1E1F21"
        d="M1182.176,2294.597c0,49.111-132.283,88.928-295.461,88.928
			c-163.178,0-295.46-39.816-295.46-88.928c0-49.116,132.282-88.931,295.46-88.931
			C1049.893,2205.666,1182.176,2245.48,1182.176,2294.597z"
        opacity=".145"></path>
      <ellipse cx="886.715" cy="2294.597" fill="#1E1F21" opacity=".16" rx="291.542" ry="87.749"></ellipse>
      <ellipse cx="886.715" cy="2294.597" fill="#1E1F21" opacity=".175" rx="287.622" ry="86.569"></ellipse>
      <ellipse cx="886.715" cy="2294.597" fill="#1E1F21" opacity=".19" rx="283.703" ry="85.389"></ellipse>
      <ellipse cx="886.715" cy="2294.597" fill="#1E1F21" opacity=".205" rx="279.784" ry="84.21"></ellipse>
      <ellipse cx="886.715" cy="2294.597" fill="#1E1F21" opacity=".22" rx="275.865" ry="83.03"></ellipse>
      <ellipse cx="886.715" cy="2294.597" fill="#1E1F21" opacity=".235" rx="271.946" ry="81.85"></ellipse>
      <ellipse cx="886.715" cy="2294.597" fill="#1E1F21" opacity=".25" rx="268.026" ry="80.671"></ellipse>
      <ellipse cx="886.715" cy="2294.597" fill="#1E1F21" opacity=".265" rx="264.107" ry="79.491"></ellipse>
      <ellipse cx="886.715" cy="2294.597" fill="#1E1F21" opacity=".28" rx="260.188" ry="78.312"></ellipse>
      <ellipse cx="886.715" cy="2294.597" fill="#1E1F21" opacity=".295" rx="256.269" ry="77.132"></ellipse>
      <ellipse cx="886.715" cy="2294.597" fill="#1E1F21" opacity=".31" rx="252.35" ry="75.952"></ellipse>
      <ellipse cx="886.715" cy="2294.597" fill="#1E1F21" opacity=".325" rx="248.43" ry="74.772"></ellipse>
      <ellipse cx="886.715" cy="2294.597" fill="#1E1F21" opacity=".34" rx="244.511" ry="73.594"></ellipse>
      <ellipse cx="886.715" cy="2294.597" fill="#1E1F21" opacity=".355" rx="240.592" ry="72.413"></ellipse>
      <ellipse cx="886.715" cy="2294.597" fill="#1E1F21" opacity=".37" rx="236.673" ry="71.234"></ellipse>
      <ellipse cx="886.715" cy="2294.597" fill="#1E1F21" opacity=".385" rx="232.754" ry="70.055"></ellipse>
      <ellipse cx="886.715" cy="2294.597" fill="#1E1F21" opacity=".4" rx="228.834" ry="68.875"></ellipse>
      <ellipse cx="886.715" cy="2294.597" fill="#1E1F21" opacity=".415" rx="224.916" ry="67.695"></ellipse>
      <ellipse cx="886.715" cy="2294.597" fill="#1E1F21" opacity=".43" rx="220.996" ry="66.516"></ellipse>
      <ellipse cx="886.715" cy="2294.597" fill="#1E1F21" opacity=".445" rx="217.077" ry="65.336"></ellipse>
      <ellipse cx="886.715" cy="2294.597" fill="#1E1F21" opacity=".46" rx="213.158" ry="64.156"></ellipse>
      <ellipse cx="886.715" cy="2294.597" fill="#1E1F21" opacity=".475" rx="209.239" ry="62.977"></ellipse>
      <ellipse cx="886.715" cy="2294.597" fill="#1E1F21" opacity=".49" rx="205.319" ry="61.797"></ellipse>
      <ellipse cx="886.715" cy="2294.597" fill="#1E1F21" opacity=".505" rx="201.4" ry="60.617"></ellipse>
      <ellipse cx="886.715" cy="2294.597" fill="#1E1F21" opacity=".52" rx="197.481" ry="59.438"></ellipse>
      <path fill="#1E1F21"
        d="M1080.277,2294.597c0,32.174-86.661,58.258-193.562,58.258
			s-193.562-26.084-193.562-58.258c0-32.178,86.661-58.261,193.562-58.261S1080.277,2262.419,1080.277,2294.597z"
        opacity=".535"></path>
      <ellipse cx="886.715" cy="2294.597" fill="#1E1F21" opacity=".55" rx="189.642" ry="57.078"></ellipse>
      <ellipse cx="886.715" cy="2294.597" fill="#1E1F21" opacity=".565" rx="185.723" ry="55.898"></ellipse>
      <ellipse cx="886.715" cy="2294.597" fill="#1E1F21" opacity=".58" rx="181.804" ry="54.719"></ellipse>
      <ellipse cx="886.715" cy="2294.597" fill="#1E1F21" opacity=".595" rx="177.885" ry="53.539"></ellipse>
      <ellipse cx="886.715" cy="2294.597" fill="#1E1F21" opacity=".61" rx="173.966" ry="52.359"></ellipse>
      <ellipse cx="886.715" cy="2294.597" fill="#1E1F21" opacity=".625" rx="170.046" ry="51.181"></ellipse>
      <ellipse cx="886.715" cy="2294.597" fill="#1E1F21" opacity=".64" rx="166.127" ry="50"></ellipse>
      <ellipse cx="886.715" cy="2294.597" fill="#1E1F21" opacity=".655" rx="162.208" ry="48.821"></ellipse>
      <ellipse cx="886.715" cy="2294.597" fill="#1E1F21" opacity=".67" rx="158.289" ry="47.642"></ellipse>
      <ellipse cx="886.715" cy="2294.597" fill="#1E1F21" opacity=".685" rx="154.37" ry="46.461"></ellipse>
      <ellipse cx="886.715" cy="2294.597" fill="#1E1F21" opacity=".7" rx="150.451" ry="45.282"></ellipse>
      <ellipse cx="886.715" cy="2294.597" fill="#1E1F21" opacity=".715" rx="146.531" ry="44.103"></ellipse>
      <ellipse cx="886.715" cy="2294.597" fill="#1E1F21" opacity=".73" rx="142.612" ry="42.923"></ellipse>
      <ellipse cx="886.715" cy="2294.597" fill="#1E1F21" opacity=".745" rx="138.693" ry="41.743"></ellipse>
      <ellipse cx="886.715" cy="2294.597" fill="#1E1F21" opacity=".76" rx="134.774" ry="40.563"></ellipse>
      <ellipse cx="886.715" cy="2294.597" fill="#1E1F21" opacity=".775" rx="130.855" ry="39.384"></ellipse>
      <ellipse cx="886.715" cy="2294.597" fill="#1E1F21" opacity=".79" rx="126.936" ry="38.204"></ellipse>
      <ellipse cx="886.715" cy="2294.597" fill="#1E1F21" opacity=".805" rx="123.016" ry="37.024"></ellipse>
      <ellipse cx="886.715" cy="2294.597" fill="#1E1F21" opacity=".82" rx="119.097" ry="35.846"></ellipse>
      <ellipse cx="886.715" cy="2294.597" fill="#1E1F21" opacity=".835" rx="115.178" ry="34.665"></ellipse>
      <ellipse cx="886.715" cy="2294.597" fill="#1E1F21" opacity=".85" rx="111.259" ry="33.485"></ellipse>
      <ellipse cx="886.715" cy="2294.597" fill="#1E1F21" opacity=".865" rx="107.339" ry="32.307"></ellipse>
      <ellipse cx="886.715" cy="2294.597" fill="#1E1F21" opacity=".88" rx="103.42" ry="31.126"></ellipse>
      <ellipse cx="886.715" cy="2294.597" fill="#1E1F21" opacity=".895" rx="99.501" ry="29.946"></ellipse>
      <ellipse cx="886.715" cy="2294.597" fill="#1E1F21" opacity=".91" rx="95.582" ry="28.768"></ellipse>
      <ellipse cx="886.715" cy="2294.597" fill="#1E1F21" opacity=".925" rx="91.663" ry="27.588"></ellipse>
      <ellipse cx="886.715" cy="2294.597" fill="#1E1F21" opacity=".94" rx="87.744" ry="26.408"></ellipse>
      <ellipse cx="886.715" cy="2294.597" fill="#1E1F21" opacity=".955" rx="83.824" ry="25.229"></ellipse>
      <ellipse cx="886.715" cy="2294.597" fill="#1E1F21" opacity=".97" rx="79.905" ry="24.049"></ellipse>
      <ellipse cx="886.715" cy="2294.597" fill="#1E1F21" opacity=".985" rx="75.986" ry="22.869"></ellipse>
      <ellipse cx="886.715" cy="2294.597" fill="#1E1F21" rx="72.067" ry="21.689"></ellipse>
    </g>
    <g opacity=".4">
      <ellipse cx="2128.8" cy="2306.905" fill="#1E1F21" opacity=".01" rx="330.734" ry="99.545"></ellipse>
      <ellipse cx="2128.8" cy="2306.905" fill="#1E1F21" opacity=".025" rx="326.814" ry="98.365"></ellipse>
      <ellipse cx="2128.8" cy="2306.905" fill="#1E1F21" opacity=".04" rx="322.895" ry="97.186"></ellipse>
      <ellipse cx="2128.8" cy="2306.905" fill="#1E1F21" opacity=".055" rx="318.976" ry="96.007"></ellipse>
      <path fill="#1E1F21"
        d="M2443.856,2306.905c0,52.368-141.056,94.826-315.057,94.826
			s-315.057-42.458-315.057-94.826c0-52.374,141.056-94.829,315.057-94.829S2443.856,2254.531,2443.856,2306.905z"
        opacity=".07"></path>
      <path fill="#1E1F21"
        d="M2439.938,2306.905c0,51.717-139.302,93.646-311.138,93.646
			s-311.137-41.93-311.137-93.646c0-51.723,139.301-93.649,311.137-93.649S2439.938,2255.183,2439.938,2306.905z"
        opacity=".085"></path>
      <ellipse cx="2128.8" cy="2306.905" fill="#1E1F21" opacity=".1" rx="307.218" ry="92.468"></ellipse>
      <ellipse cx="2128.8" cy="2306.905" fill="#1E1F21" opacity=".115" rx="303.299" ry="91.287"></ellipse>
      <ellipse cx="2128.8" cy="2306.905" fill="#1E1F21" opacity=".13" rx="299.38" ry="90.107"></ellipse>
      <path fill="#1E1F21"
        d="M2424.261,2306.905c0,49.111-132.283,88.928-295.461,88.928
			c-163.179,0-295.461-39.816-295.461-88.928c0-49.116,132.282-88.931,295.461-88.931
			C2291.978,2217.975,2424.261,2257.789,2424.261,2306.905z"
        opacity=".145"></path>
      <ellipse cx="2128.8" cy="2306.905" fill="#1E1F21" opacity=".16" rx="291.541" ry="87.749"></ellipse>
      <ellipse cx="2128.8" cy="2306.905" fill="#1E1F21" opacity=".175" rx="287.623" ry="86.569"></ellipse>
      <ellipse cx="2128.8" cy="2306.905" fill="#1E1F21" opacity=".19" rx="283.703" ry="85.389"></ellipse>
      <ellipse cx="2128.8" cy="2306.905" fill="#1E1F21" opacity=".205" rx="279.784" ry="84.21"></ellipse>
      <ellipse cx="2128.8" cy="2306.905" fill="#1E1F21" opacity=".22" rx="275.865" ry="83.03"></ellipse>
      <ellipse cx="2128.8" cy="2306.905" fill="#1E1F21" opacity=".235" rx="271.945" ry="81.85"></ellipse>
      <ellipse cx="2128.8" cy="2306.905" fill="#1E1F21" opacity=".25" rx="268.026" ry="80.671"></ellipse>
      <ellipse cx="2128.8" cy="2306.905" fill="#1E1F21" opacity=".265" rx="264.107" ry="79.491"></ellipse>
      <ellipse cx="2128.8" cy="2306.905" fill="#1E1F21" opacity=".28" rx="260.188" ry="78.312"></ellipse>
      <ellipse cx="2128.8" cy="2306.905" fill="#1E1F21" opacity=".295" rx="256.269" ry="77.132"></ellipse>
      <ellipse cx="2128.8" cy="2306.905" fill="#1E1F21" opacity=".31" rx="252.35" ry="75.952"></ellipse>
      <ellipse cx="2128.8" cy="2306.905" fill="#1E1F21" opacity=".325" rx="248.43" ry="74.772"></ellipse>
      <ellipse cx="2128.8" cy="2306.905" fill="#1E1F21" opacity=".34" rx="244.512" ry="73.594"></ellipse>
      <ellipse cx="2128.8" cy="2306.905" fill="#1E1F21" opacity=".355" rx="240.592" ry="72.413"></ellipse>
      <ellipse cx="2128.8" cy="2306.905" fill="#1E1F21" opacity=".37" rx="236.673" ry="71.234"></ellipse>
      <ellipse cx="2128.8" cy="2306.905" fill="#1E1F21" opacity=".385" rx="232.754" ry="70.055"></ellipse>
      <ellipse cx="2128.8" cy="2306.905" fill="#1E1F21" opacity=".4" rx="228.834" ry="68.875"></ellipse>
      <ellipse cx="2128.8" cy="2306.905" fill="#1E1F21" opacity=".415" rx="224.916" ry="67.695"></ellipse>
      <ellipse cx="2128.8" cy="2306.905" fill="#1E1F21" opacity=".43" rx="220.996" ry="66.516"></ellipse>
      <ellipse cx="2128.8" cy="2306.905" fill="#1E1F21" opacity=".445" rx="217.077" ry="65.336"></ellipse>
      <ellipse cx="2128.8" cy="2306.905" fill="#1E1F21" opacity=".46" rx="213.158" ry="64.156"></ellipse>
      <ellipse cx="2128.8" cy="2306.905" fill="#1E1F21" opacity=".475" rx="209.238" ry="62.977"></ellipse>
      <ellipse cx="2128.8" cy="2306.905" fill="#1E1F21" opacity=".49" rx="205.319" ry="61.797"></ellipse>
      <ellipse cx="2128.8" cy="2306.905" fill="#1E1F21" opacity=".505" rx="201.4" ry="60.617"></ellipse>
      <ellipse cx="2128.8" cy="2306.905" fill="#1E1F21" opacity=".52" rx="197.48" ry="59.438"></ellipse>
      <path fill="#1E1F21"
        d="M2322.362,2306.905c0,32.174-86.662,58.258-193.563,58.258
			s-193.563-26.084-193.563-58.258c0-32.178,86.662-58.261,193.563-58.261S2322.362,2274.728,2322.362,2306.905z"
        opacity=".535"></path>
      <ellipse cx="2128.8" cy="2306.905" fill="#1E1F21" opacity=".55" rx="189.643" ry="57.078"></ellipse>
      <ellipse cx="2128.8" cy="2306.905" fill="#1E1F21" opacity=".565" rx="185.723" ry="55.898"></ellipse>
      <ellipse cx="2128.8" cy="2306.905" fill="#1E1F21" opacity=".58" rx="181.805" ry="54.719"></ellipse>
      <ellipse cx="2128.8" cy="2306.905" fill="#1E1F21" opacity=".595" rx="177.885" ry="53.539"></ellipse>
      <ellipse cx="2128.8" cy="2306.905" fill="#1E1F21" opacity=".61" rx="173.966" ry="52.359"></ellipse>
      <ellipse cx="2128.8" cy="2306.905" fill="#1E1F21" opacity=".625" rx="170.047" ry="51.181"></ellipse>
      <ellipse cx="2128.8" cy="2306.905" fill="#1E1F21" opacity=".64" rx="166.127" ry="50"></ellipse>
      <ellipse cx="2128.8" cy="2306.905" fill="#1E1F21" opacity=".655" rx="162.209" ry="48.821"></ellipse>
      <ellipse cx="2128.8" cy="2306.905" fill="#1E1F21" opacity=".67" rx="158.289" ry="47.642"></ellipse>
      <ellipse cx="2128.8" cy="2306.905" fill="#1E1F21" opacity=".685" rx="154.369" ry="46.461"></ellipse>
      <ellipse cx="2128.8" cy="2306.905" fill="#1E1F21" opacity=".7" rx="150.451" ry="45.282"></ellipse>
      <ellipse cx="2128.8" cy="2306.905" fill="#1E1F21" opacity=".715" rx="146.531" ry="44.103"></ellipse>
      <ellipse cx="2128.8" cy="2306.905" fill="#1E1F21" opacity=".73" rx="142.612" ry="42.923"></ellipse>
      <ellipse cx="2128.8" cy="2306.905" fill="#1E1F21" opacity=".745" rx="138.693" ry="41.743"></ellipse>
      <ellipse cx="2128.8" cy="2306.905" fill="#1E1F21" opacity=".76" rx="134.773" ry="40.563"></ellipse>
      <ellipse cx="2128.8" cy="2306.905" fill="#1E1F21" opacity=".775" rx="130.855" ry="39.384"></ellipse>
      <ellipse cx="2128.8" cy="2306.905" fill="#1E1F21" opacity=".79" rx="126.936" ry="38.204"></ellipse>
      <ellipse cx="2128.8" cy="2306.905" fill="#1E1F21" opacity=".805" rx="123.016" ry="37.024"></ellipse>
      <ellipse cx="2128.8" cy="2306.905" fill="#1E1F21" opacity=".82" rx="119.098" ry="35.846"></ellipse>
      <ellipse cx="2128.8" cy="2306.905" fill="#1E1F21" opacity=".835" rx="115.178" ry="34.665"></ellipse>
      <ellipse cx="2128.8" cy="2306.905" fill="#1E1F21" opacity=".85" rx="111.259" ry="33.485"></ellipse>
      <ellipse cx="2128.8" cy="2306.905" fill="#1E1F21" opacity=".865" rx="107.34" ry="32.307"></ellipse>
      <ellipse cx="2128.8" cy="2306.905" fill="#1E1F21" opacity=".88" rx="103.42" ry="31.126"></ellipse>
      <ellipse cx="2128.8" cy="2306.905" fill="#1E1F21" opacity=".895" rx="99.502" ry="29.946"></ellipse>
      <ellipse cx="2128.8" cy="2306.905" fill="#1E1F21" opacity=".91" rx="95.582" ry="28.768"></ellipse>
      <ellipse cx="2128.8" cy="2306.905" fill="#1E1F21" opacity=".925" rx="91.662" ry="27.588"></ellipse>
      <ellipse cx="2128.8" cy="2306.905" fill="#1E1F21" opacity=".94" rx="87.744" ry="26.408"></ellipse>
      <ellipse cx="2128.8" cy="2306.905" fill="#1E1F21" opacity=".955" rx="83.824" ry="25.229"></ellipse>
      <ellipse cx="2128.8" cy="2306.905" fill="#1E1F21" opacity=".97" rx="79.905" ry="24.049"></ellipse>
      <ellipse cx="2128.8" cy="2306.905" fill="#1E1F21" opacity=".985" rx="75.986" ry="22.869"></ellipse>
      <ellipse cx="2128.8" cy="2306.905" fill="#1E1F21" rx="72.066" ry="21.689"></ellipse>
    </g>
    <path fill="#759BD1"
      d="M823.035,1257.24C888,1346,986,1342,986,1342s1-16,37-38s95-4.732,101-4.366s70,26.366,70,26.366
		s27.357-3.381,37.179-31.19L1140,1257.24L856,1241h-10L823.035,1257.24z"></path>
    <g>
      <rect width="210.325" height="17.17" x="401.206" y="887.523" fill="#FF8500"></rect>
      <rect width="126.652" height="17.168" x="401.206" y="918.439" fill="#FF8500"></rect>
      <rect width="210.325" height="17.169" x="401.206" y="949.354" fill="#FF8500"></rect>
      <rect width="100.615" height="17.169" x="401.206" y="980.27" fill="#FF8500"></rect>
    </g>
    <g>
      <rect width="210.324" height="17.17" x="2410.723" y="1195.043" fill="#8ECC36"></rect>
      <rect width="126.652" height="17.168" x="2410.723" y="1225.959" fill="#8ECC36"></rect>
      <rect width="210.324" height="17.169" x="2410.723" y="1256.874" fill="#8ECC36"></rect>
      <rect width="100.615" height="17.169" x="2410.723" y="1287.789" fill="#8ECC36"></rect>
    </g>
    <g>
      <path fill="#424242"
        d="M1056.447,2115.831c-10.185,10.767-10.185,24.05-9.806,55.929c0.38,31.879-36.177,143.454,9.806,161.671
			s96.077,3.795,86.21-53.132c-9.866-56.927-20.872-97.914-24.288-140.418c-3.415-42.506-36.812-43.265-36.812-43.265
			l-14.802,13.283L1056.447,2115.831z"></path>
      <path fill="#FFCC7B"
        d="M1066.376,2056.389c0,0-2.655,36.054-7.59,50.096c-4.934,14.041-3.794,32.256,0,45.16
			c3.795,12.904,11.385,9.109,9.867-9.866s1.896-23.151,23.909-21.253c22.012,1.898,25.807,19.355,25.807,19.355
			s-4.175-25.429,0-48.578c4.175-23.15,3.416-34.914,3.416-34.914H1066.376z"></path>
      <path fill="#424242"
        d="M744.931,2102.688c-12.904,16.319-9.867,24.287-15.939,49.716c-6.073,25.428-22.771,65.655-36.433,99.433
			c-13.662,33.776-7.591,66.795,21.252,73.246c28.843,6.451,60.342,1.519,71.728-40.987s12.795-55.028,19.301-89.944
			c6.506-34.915,1.081-46.275-5.181-82.7C793.398,2075.026,744.931,2102.688,744.931,2102.688z"></path>
      <path fill="#FFCC7B"
        d="M746.639,2059.803c0,0-5.123,55.031-9.298,76.283c-4.175,21.252,2.656,7.97,5.882-6.452
			s16.509-15.939,35.105-9.108s10.247,29.222,14.421,34.535s6.451-12.903,6.451-12.903s0-70.59,5.314-88.426
			c5.313-17.837-56.168-6.072-56.168-6.072L746.639,2059.803z"></path>
      <path fill="#424242"
        d="M865.615,1240.061c0,0-40.987,181.026-58.065,292.603c-17.078,111.576-55.788,255.031-59.204,355.222
			s-5.124,174.765-5.124,174.765s17.647,18.216,43.833,13.662c26.187-4.554,27.894-13.093,27.894-13.093
			s54.459-189.754,66.604-266.415c12.145-76.662,51.234-228.847,74.005-313.098c22.771-84.251,72.866-169.642,72.866-169.642
			l18.216,3.416c0,0,11.386,144.594,10.247,218.598c-1.139,74.005,0.058,148.09,0.08,288.122
			c0.022,140.033,6.751,232.188,6.751,232.188s-4.554,17.019,30.361,20.653s36.433-6.233,36.433-6.233
			s48.198-194.309,50.475-314.993c2.277-120.685,59.204-379.131,26.187-494.123c-33.018-114.991-259.585-94.498-259.585-94.498
			L865.615,1240.061z"></path>
      <path fill="#9CBDEF"
        d="M1430.896,735.122c0,0,26.188-24.099,50.096,7.021l-6.642,16.129l-47.061,1.518L1430.896,735.122z"></path>
      <path fill="#FFC166"
        d="M1614.011,641.952c-0.381,7.495-8.635,16.034-28.559,28.843c-19.925,12.809-48.957,31.31-72.297,40.418
			s-31.595,12.809-33.871,21.917c-2.277,9.107-5.978,22.485-5.978,22.485l-39.564-3.7l-2.846-5.977c0,0,1.139-17.231,4.27-39.214
			s27.324-40.769,27.324-40.769l54.365,8.824l61.765-31.595L1614.011,641.952z"></path>
      <path fill="#B6D2FC"
        d="M1243.607,692.58c37.572,18.063,47.818,44.819,88.806,101.745c40.987,56.927,58.065,67.743,58.065,67.743
			l40.418-126.946c0,0-0.568,13.663,18.786,15.561c19.355,1.897,31.31-8.539,31.31-8.539s1.519,0.759-1.897,7.59
			s-8.35,57.116-11.196,120.305s1.708,139.47-64.896,125.808c-66.604-13.662-159.395-185.012-186.149-181.596
			c-26.756,3.415-46.111-88.806-46.111-88.806L1243.607,692.58z"></path>
      <path fill="#9CBDEF"
        d="M649.864,843.282c0,0,14.516-37.382,52.942-26.661l7.59,22.297l-55.978,19.734L649.864,843.282z"></path>
      <path fill="#FFC166"
        d="M506.368,771.453c40.458,18.888,47.29,23.821,82.964,30.272c35.673,6.452,61.86,6.452,64.137,17.458
			c2.277,11.006,8.35,48.197,8.35,48.197l48.577-25.048c0,0-13.541-17.765-21.192-62.962l-171.22-18.253L506.368,771.453z"></path>
      <path fill="#B6D2FC"
        d="M851.953,706.849c-29.033,19.734-36.433,40.797-55.219,102.278
			c-18.786,61.48-50.665,117.269-50.665,117.269l-43.264-109.774c0,0,3.415,19.83-22.771,26.661s-30.171,0-30.171,0
			s21.442,98.863,41.177,166.416s49.336,106.263,85.77,76.66c36.433-29.602,130.551-282.355,130.551-282.355L851.953,706.849z"></path>
      <path fill="#9CBDEF"
        d="M950.626,667.759c-59.963,21.633-98.673,39.09-98.673,39.09s47.818,130.172,63.758,212.146
			c15.939,81.974-50.096,261.396-63.758,295.553c-13.663,34.156-28.918,42.692-28.918,42.692s60.797-16.386,126.832,29.155
			s85.39,55.788,155.979,40.987c70.589-14.801,125.333-32.573,125.333-32.573s-42.221-187.957-37.666-288.147
			c4.554-100.191,50.095-314.082,50.095-314.082l-81.974-27.478L950.626,667.759z"></path>
      <path fill="#FFC166"
        d="M980.228,565.67c13.662,32.639,22.391,63.379,9.108,79.697c-13.283,16.319-38.71,22.392-38.71,22.392
			s12.903,31.499,103.985,23.529c91.083-7.97,107.022-26.186,107.022-26.186s-57.496-11.386-66.035-52.942
			c-8.539-41.556-3.416-87.666-3.416-87.666l-97.913,7.97L980.228,565.67z"></path>
      <path fill="#FFCC7B"
        d="M901.29,507.985c-0.665,20.777,5.313,35.01,14.706,40.417c9.393,5.408,20.494,11.386,25.617,9.108
			c5.124-2.276,7.4-7.4,7.4-7.4s16.509,24.764,42.41,24.764c25.902,0,43.549,5.123,69.451-7.97
			c25.901-13.094,38.709-23.056,44.117-33.872c5.408-10.815,8.824-22.201,8.824-22.201s5.313,7.971,13.853-0.759
			c8.539-8.729,18.218-19.544,16.129-30.171c-2.088-10.626-3.416-14.801-3.416-14.801l-6.072-23.15c0,0-57.637-84.82-111.646-85.39
			s-110.367,20.493-118.337,44.972S901.29,507.985,901.29,507.985z"></path>
      <path fill="#030303"
        d="M917.418,502.577c8.519,6.084,9.677,19.449,12.713,22.485c3.037,3.037,8.729,3.795,3.037-10.246
			c-5.693-14.042-10.627-28.464-0.759-36.434c9.867-7.97,30.74-26.186,19.734-50.475c-11.005-24.288-13.662-25.807-13.662-25.807
			s22.771,24.289,23.15,48.198c0,0,38.33,12.902,71.728-15.181c33.396-28.084,10.247-51.993,10.247-51.993
			s21.319,17.078,7.813,40.607c0,0,13.818,22.012,35.451,18.217c21.632-3.795,22.012,12.524,24.289,32.639
			c2.277,20.113,10.246,13.662,7.97-4.555c-2.277-18.217,3.795-22.392,10.626-22.392s10.626,17.458,10.626,17.458
			s0.001-122.582-78.179-151.425s-135.75,1.57-171.539,59.963c-43.264,70.589,10.626,134.347,10.626,134.347
			S906.792,494.987,917.418,502.577z"></path>
      <path fill="#FFCC7B"
        d="M676.999 788.063c-41.394 10.924-100.57 6.831-138.521-4.554-37.951-11.386-45.542-20.493-59.963-28.843-14.421-8.35-16.509-10.816-15.37-16.13 1.139-5.313 18.786-3.225 18.786-3.225s10.058-2.088 30.361 6.451 60.912 17.647 74.763 16.319c13.852-1.329 20.684-1.519 17.837-5.503-2.846-3.985-28.083-14.991-33.207-22.961-5.123-7.97-3.036-24.099 13.663-14.422 16.698 9.678 45.352 25.93 70.399 37.823C680.794 764.914 704.324 780.853 676.999 788.063zM1462.49 659.694c-20.493 27.04-4.554 31.31-4.554 31.31s.284 20.209 38.141 14.801 64.991-26.85 87.003-41.081c22.013-14.232 30.361-20.304 30.931-22.771.569-2.467-.76-3.415-.76-3.415s12.903-10.579 14.611-15.134c1.707-4.554-6.832-4.839-6.832-4.839s6.689-5.266 3.273-9.962c-3.415-4.696-18.928 3.131-18.928 3.131s-1.992-7.258-15.228 0c-13.235 7.259-38.853 28.748-52.373 36.006-13.52 7.259-27.75 12.239-35.91 10.722s-7.971-7.78.948-17.647c8.92-9.867 16.89-17.647 13.474-25.807s-6.263-8.538-11.196-3.036c-4.934 5.503-22.579 24.669-29.791 33.018C1468.089 653.337 1462.49 659.694 1462.49 659.694z"></path>
    </g>
    <g>
      <path fill="#030303"
        d="M1956.856,643.33c71.448,12.824,138.012,14.046,139.844,15.267s42.746,3.664,42.746,3.664
			s-29.947,83.051-30.546,97.096s-18.309,31.941-24.415,46.504c-6.105,14.563,6.108,37.609-61.065,25.17
			c-67.175-12.439-83.052-47.247-83.052-47.247L1956.856,643.33z"></path>
      <path fill="#424242"
        d="M2012.011,2134.732c9.33,9.862,9.33,22.029,8.982,51.23s33.138,131.404-8.982,148.092
			c-42.12,16.687-88.007,3.476-78.969-48.67c9.038-52.145,19.119-89.689,22.248-128.623c3.129-38.936,33.72-39.63,33.72-39.63
			l13.559,12.167L2012.011,2134.732z"></path>
      <path fill="#FFCC7B"
        d="M2002.916,2080.283c0,0,2.433,33.025,6.952,45.888s3.476,29.546,0,41.366
			c-3.477,11.821-10.428,8.345-9.038-9.037c1.39-17.381-1.737-21.207-21.901-19.467c-20.162,1.738-23.639,17.729-23.639,17.729
			s3.824-23.292,0-44.497c-3.824-21.206-3.129-31.981-3.129-31.981H2002.916z"></path>
      <path fill="#424242"
        d="M2297.36,2122.693c11.82,14.948,9.038,22.246,14.6,45.539c5.563,23.292,20.859,60.141,33.374,91.081
			c12.515,30.938,6.953,61.185-19.468,67.094c-26.42,5.909-55.273,1.391-65.703-37.545c-10.428-38.936-11.72-50.405-17.68-82.39
			c-5.959-31.981-0.99-42.388,4.746-75.753C2252.964,2097.355,2297.36,2122.693,2297.36,2122.693z"></path>
      <path fill="#FFCC7B"
        d="M2295.796,2083.41c0,0,4.693,50.409,8.518,69.876s-2.434,7.3-5.389-5.91s-15.123-14.601-32.156-8.343
			c-17.033,6.257-9.387,26.767-13.211,31.634c-3.822,4.867-5.908-11.819-5.908-11.819s0-64.66-4.867-80.998
			c-4.867-16.339,51.449-5.563,51.449-5.563L2295.796,2083.41z"></path>
      <path fill="#424242"
        d="M2186.813,1332.524c0,0,37.545,165.821,53.188,268.024c15.643,102.205,51.103,233.609,54.23,325.385
			c3.129,91.774,4.693,160.084,4.693,160.084s-16.166,16.686-40.151,12.516c-23.987-4.172-25.552-11.994-25.552-11.994
			s-49.885-173.814-61.009-244.036c-11.124-70.223-46.931-209.624-67.789-286.798c-20.857-77.175-66.745-155.393-66.745-155.393
			l-16.686,3.129c0,0-10.43,132.448-9.387,200.236s-0.053,135.65-0.073,263.92c-0.021,128.271-6.185,212.686-6.185,212.686
			s4.172,15.589-27.811,18.918c-31.982,3.33-33.372-5.709-33.372-5.709s-44.149-177.987-46.235-288.535
			c-2.086-110.547-54.23-347.284-23.986-452.617s237.78-86.561,237.78-86.561L2186.813,1332.524z"></path>
      <path fill="#9CBDEF"
        d="M1669.015,870c0,0-23.989-22.074-45.888,6.432l6.083,14.774l43.108,1.391L1669.015,870z"></path>
      <path fill="#FFC166"
        d="M1501.281,784.656c0.349,6.865,7.909,14.687,26.16,26.42c18.251,11.732,44.845,28.68,66.224,37.022
			c21.38,8.343,28.941,11.733,31.026,20.076c2.086,8.343,5.476,20.597,5.476,20.597l36.241-3.389l2.606-5.475
			c0,0-1.043-15.784-3.911-35.92s-25.029-37.344-25.029-37.344l-49.798,8.083l-56.577-28.94L1501.281,784.656z"></path>
      <path fill="#B6D2FC"
        d="M1840.571,831.031c-34.416,16.546-43.802,41.054-81.346,93.199
			c-37.545,52.145-53.188,62.053-53.188,62.053L1669.015,870c0,0,0.521,12.516-17.208,14.253c-17.729,1.738-28.68-7.822-28.68-7.822
			s-1.392,0.695,1.737,6.953c3.13,6.257,7.648,52.318,10.256,110.199c2.608,57.881-1.564,127.755,59.445,115.24
			s146.006-169.471,170.514-166.342c24.509,3.128,42.238-81.346,42.238-81.346L1840.571,831.031z"></path>
      <path fill="#9CBDEF"
        d="M2384.442,969.075c0,0-13.297-34.242-48.495-24.421l-6.952,20.424l51.275,18.077L2384.442,969.075z"></path>
      <path fill="#FFC166"
        d="M2515.885,903.279c-37.06,17.301-43.318,21.821-75.995,27.73c-32.678,5.91-56.664,5.91-58.75,15.992
			c-2.086,10.081-7.648,44.149-7.648,44.149l-44.496-22.944c0,0,12.403-16.272,19.412-57.674l156.838-16.719L2515.885,903.279z"></path>
      <path fill="#B6D2FC"
        d="M2199.328,844.101c26.595,18.077,33.373,37.371,50.58,93.687c17.208,56.316,46.409,107.418,46.409,107.418
			l39.63-100.553c0,0-3.128,18.164,20.858,24.421s27.637,0,27.637,0s-19.641,90.559-37.719,152.437
			c-18.076,61.879-45.191,97.337-78.564,70.222s-119.585-258.639-119.585-258.639L2199.328,844.101z"></path>
      <path fill="#95B5E5"
        d="M2108.943,808.295c54.926,19.815,90.385,35.806,90.385,35.806s-43.802,119.238-58.402,194.327
			s45.888,239.44,58.402,270.727c12.515,31.288,149.059,245.903,149.059,245.903s-49.462,148.393-172.561,189.218
			c-69.743,23.129-260.565,24.482-325.226,10.926c-64.66-13.558-133.736-125.031-133.736-125.031s156.708-305.083,169.594-511.439
			c5.726-91.691-45.887-287.699-45.887-287.699l75.088-25.17L2108.943,808.295z"></path>
      <path fill="#9CBDEF"
        d="M1840.571,831.031c24.93,75.302,7.596,109.61,14.263,152.123s9.633,63.18,52.483,69.846
			s50.851-40.667,104.984-21.333c33.693,12.033,98.478,50.846,127.145,13.333s8.266-43.29,23.174-90.531
			s36.708-110.368,36.708-110.368l-66.454-26.968c0,0-13.873-3.883-27.123-1.133s-48.789,14.298-48.789,14.298
			s-59.128,1.369-89.128-9.298s-50.583-16-50.583-16s-34.083,11.753-43.677,14.969S1840.571,831.031,1840.571,831.031z"></path>
      <path fill="#FFC166"
        d="M2081.827,714.781c-12.514,29.897-20.51,58.055-8.342,73.003c12.167,14.949,35.458,20.511,35.458,20.511
			s-11.819,28.854-95.251,21.553c-83.432-7.3-98.033-23.986-98.033-23.986s52.667-10.429,60.488-48.495
			c7.822-38.066,3.13-80.303,3.13-80.303l89.688,7.3L2081.827,714.781z"></path>
      <path fill="#FFCC7B"
        d="M2154.136 661.942c.608 19.032-4.867 32.069-13.471 37.022-8.604 4.954-18.771 10.429-23.465 8.343s-6.779-6.779-6.779-6.779-15.122 22.683-38.848 22.683-39.891 4.693-63.617-7.3c-23.726-11.994-35.457-21.119-40.412-31.026-4.953-9.908-8.082-20.336-8.082-20.336s-4.867 7.301-12.689-.695c-7.822-7.996-16.688-17.903-14.774-27.637s3.13-13.558 3.13-13.558l5.562-21.205c0 0 52.796-77.696 102.269-78.218s101.097 18.772 108.396 41.194C2158.655 586.854 2154.136 661.942 2154.136 661.942zM2359.586 918.494c37.917 10.006 92.123 6.257 126.886-4.171 34.764-10.429 41.717-18.771 54.927-26.419 13.21-7.648 15.122-9.908 14.079-14.775-1.043-4.866-17.207-2.954-17.207-2.954s-9.214-1.912-27.812 5.909c-18.599 7.822-55.796 16.166-68.483 14.949-12.688-1.217-18.946-1.391-16.339-5.041 2.607-3.65 25.724-13.731 30.418-21.032 4.692-7.3 2.781-22.075-12.516-13.21-15.295 8.865-41.542 23.751-64.485 34.646C2356.11 897.289 2334.557 911.889 2359.586 918.494zM1640.074 800.908c18.772 24.769 4.172 28.68 4.172 28.68s-.261 18.511-34.938 13.558-59.532-24.595-79.694-37.63c-20.164-13.037-27.812-18.599-28.333-20.858s.696-3.129.696-3.129-11.819-9.69-13.384-13.862c-1.564-4.172 6.258-4.433 6.258-4.433s-6.128-4.823-2.999-9.125 17.338 2.868 17.338 2.868 1.825-6.648 13.949 0c12.123 6.648 35.589 26.333 47.974 32.981 12.384 6.648 25.419 11.211 32.894 9.821s7.301-7.127-.868-16.165c-8.171-9.039-15.472-16.166-12.342-23.639 3.129-7.474 5.736-7.821 10.255-2.781 4.52 5.041 20.683 22.597 27.289 30.244C1634.946 795.084 1640.074 800.908 1640.074 800.908z"></path>
      <path fill="#212121"
        d="M2148.574,698.901c15.416-45.254,21.551-63.292,23.99-70.479c8.339-22.978,12.241-55.385-8.695-89.543
			c-32.782-53.487-85.517-81.346-157.13-54.926c-17.564,6.48-30.813,18.131-40.817,32.019c-0.004,0.004-0.007,0.007-0.011,0.011
			c-20.698,21.201-41.572,80.478-43.404,182.612s-25.654,113.569-25.654,113.569c8.924-2.992,18.807-6.304,18.807-6.304
			c15.841,13.639,65.675,53.472,65.675,53.472s-1.882-10.819-17.149-60.283c-14.361-46.529-12.56-122.113,19.778-197.624
			c0.061,0.01,0.118,0.017,0.181,0.027c19.815,3.476,30.606,4.796,30.606,4.796c-12.25-25.75,9.024-58.679,9.024-58.679
			s-16.305,48.356,14.287,74.081s49.325,18.32,49.325,18.32c0.31-19.478,28.305-70.086,31.959-74.219
			c-1.299,1.707-13.924,34.521-21.12,50.402c-9.105,20.098,6.589,26.607,16.184,34.809c-2.794,51.676-9.121,78.495-27.48,114.042
			c-21.525,41.678-43.303,98.165-43.303,98.165s32.008-30.211,53.669-36.621c9.105-2.694,35.579-9.417,35.579-9.417l26.232,10.173
			C2159.106,827.306,2123.411,772.766,2148.574,698.901z"></path>
    </g>
    <g>
      <path fill="#FFF" stroke="#A4D1E4" stroke-linejoin="bevel" stroke-miterlimit="10"
        stroke-width="9"
        d="M2409.141,807.324
			h-10.894c1.17-22.722,3.98-41.584,8.434-56.58c4.448-14.991,13.707-35.847,27.763-62.555
			c10.774-20.383,17.803-36.077,21.087-47.092c3.279-11.01,4.919-22.14,4.919-33.386c0-22.958-6.149-41.233-18.448-54.823
			c-12.301-13.585-27.237-20.383-44.809-20.383c-15.936,0-28.412,3.689-37.427,11.07c-9.022,7.38-13.531,15.408-13.531,24.074
			c0,6.797,2.69,15.111,8.083,24.952c5.387,9.84,8.083,17.219,8.083,22.139c0,6.562-2.054,12.07-6.149,16.518
			c-4.104,4.454-9.198,6.677-15.287,6.677c-7.502,0-14.409-3.745-20.735-11.246c-6.326-7.495-9.489-17.923-9.489-31.277
			c0-20.613,8.786-38.833,26.359-54.647c17.571-15.814,41.468-23.722,71.691-23.722c37.251,0,64.664,10.895,82.234,32.683
			c13.118,15.936,19.681,33.622,19.681,53.066c0,13.354-2.932,27.005-8.786,40.942c-5.858,13.942-17.104,30.284-33.738,49.025
			c-26.241,29.756-42.293,50.842-48.146,63.258C2414.176,768.436,2410.546,785.535,2409.141,807.324z M2405.626,841.062
			c8.436,0,15.578,2.987,21.438,8.961c5.854,5.975,8.786,13.179,8.786,21.613s-2.985,15.583-8.961,21.438
			c-5.974,5.854-13.063,8.786-21.263,8.786c-8.434,0-15.582-2.932-21.437-8.786c-5.859-5.854-8.786-13.003-8.786-21.438
			s2.927-15.639,8.786-21.613C2390.044,844.048,2397.192,841.062,2405.626,841.062z"></path>
    </g>
    <g>
      <rect width="75.409" height="14.636" x="1497.064" y="564.506" fill="#FFF" stroke="#A4D1E4"
        stroke-linejoin="bevel" stroke-miterlimit="10" stroke-width="9"
        transform="rotate(-2.922 1534.349 571.809)"></rect>
      <rect width="75.408" height="14.636" x="1498.412" y="590.996" fill="#FFF" stroke="#A4D1E4"
        stroke-linejoin="bevel" stroke-miterlimit="10" stroke-width="9"
        transform="rotate(-2.922 1535.92 598.375)"></rect>
      <polygon fill="#FFF" stroke="#A4D1E4" stroke-linejoin="bevel" stroke-miterlimit="10"
        stroke-width="9"
        points="1575.509 630.454 1500.194 634.292 1499.455 619.676 1574.764 615.837"></polygon>
      <rect width="34.89" height="14.635" x="1521.477" y="646.045" fill="#FFF" stroke="#A4D1E4"
        stroke-linejoin="bevel" stroke-miterlimit="10" stroke-width="9"
        transform="rotate(-2.922 1539.28 653.636)"></rect>
      <path fill="#FFF" stroke="#A4D1E4" stroke-linejoin="bevel" stroke-miterlimit="10"
        stroke-width="9"
        d="M1608.396,466.794
			l-0.004-0.001c12.056-17.424,18.669-38.813,17.506-61.608c-2.796-54.878-49.55-97.096-104.424-94.301
			c-54.88,2.795-97.101,49.55-94.303,104.427c1.161,22.796,9.913,43.402,23.678,59.511l-0.003-0.001
			c0.017,0.022,0.034,0.038,0.05,0.057c1.183,1.384,2.399,2.736,3.656,4.05c29.663,32.526,39.626,35.318,41.583,73.78l75.121-3.828
			c-1.959-38.463,7.667-42.252,33.868-77.625c1.117-1.436,2.192-2.905,3.229-4.402
			C1608.364,466.831,1608.381,466.813,1608.396,466.794z"></path>
      <path fill="none" stroke="#FFCE00" stroke-miterlimit="10" stroke-width="9"
        d="M1524.833,546.75
			c-1.957-38.406-10.007-63.883-31.107-70.496c-21.101-6.615-12.644-59.629,9.774-42.314c22.415,17.313,1.899,40.371-3.028,19.089
			c-4.929-21.282,10.771-31.797,26.063-25.029c24.403,10.799,4.633,55.833,0,27.5c-4.525-27.679,23.896-43.661,33.428-22.613
			c9.534,21.048-5.44,45.528-10.295,25.78c-4.848-19.749,17.442-36.43,24.135-18.313c6.689,18.115-14.908,39.5-22.014,51.013
			c-7.103,11.514-5.132,54.259-5.132,54.259"></path>
      <g>
        <line x1="1520.584" x2="1511.133" y1="293.427" y2="108.018" fill="none" stroke="#A4D1E4"
          stroke-linejoin="bevel" stroke-miterlimit="10" stroke-width="9"></line>
        <line x1="1410.369" x2="1223.334" y1="417.191" y2="426.721" fill="none" stroke="#A4D1E4"
          stroke-linejoin="bevel" stroke-miterlimit="10" stroke-width="9"></line>
        <line x1="1829.838" x2="1642.804" y1="395.816" y2="405.348" fill="none" stroke="#A4D1E4"
          stroke-linejoin="bevel" stroke-miterlimit="10" stroke-width="9"></line>
        <line x1="1439.367" x2="1301.229" y1="332.508" y2="207.766" fill="none" stroke="#A4D1E4"
          stroke-linejoin="bevel" stroke-miterlimit="10" stroke-width="9"></line>
        <line x1="1751.944" x2="1612.526" y1="614.774" y2="488.874" fill="none" stroke="#A4D1E4"
          stroke-linejoin="bevel" stroke-miterlimit="10" stroke-width="9"></line>
        <line x1="1448.98" x2="1323.082" y1="497.208" y2="636.625" fill="none" stroke="#A4D1E4"
          stroke-linejoin="bevel" stroke-miterlimit="10" stroke-width="9"></line>
        <line x1="1730.09" x2="1605.343" y1="185.911" y2="324.057" fill="none" stroke="#A4D1E4"
          stroke-linejoin="bevel" stroke-miterlimit="10" stroke-width="9"></line>
        <line x1="1472.873" x2="1388.222" y1="306.34" y2="140.981" fill="none" stroke="#A4D1E4"
          stroke-linejoin="bevel" stroke-miterlimit="10" stroke-width="9"></line>
        <line x1="1423.565" x2="1256.301" y1="464.005" y2="549.633" fill="none" stroke="#A4D1E4"
          stroke-linejoin="bevel" stroke-miterlimit="10" stroke-width="9"></line>
        <line x1="1796.876" x2="1630.786" y1="272.906" y2="357.928" fill="none" stroke="#A4D1E4"
          stroke-linejoin="bevel" stroke-miterlimit="10" stroke-width="9"></line>
        <line x1="1415.261" x2="1237.625" y1="375.33" y2="317.984" fill="none" stroke="#A4D1E4"
          stroke-linejoin="bevel" stroke-miterlimit="10" stroke-width="9"></line>
        <line x1="1815.545" x2="1634.39" y1="504.553" y2="446.069" fill="none" stroke="#A4D1E4"
          stroke-linejoin="bevel" stroke-miterlimit="10" stroke-width="9"></line>
        <line x1="1619.872" x2="1562.812" y1="122.309" y2="299.054" fill="none" stroke="#A4D1E4"
          stroke-linejoin="bevel" stroke-miterlimit="10" stroke-width="9"></line>
      </g>
      <path fill="none" stroke="#A4D1E4" stroke-linejoin="bevel" stroke-miterlimit="10"
        stroke-width="9" d="M1636.314,444.955"></path>
    </g>
  </g>
</svg>